# AST/ASF file generated using VICON BodyLanguage
# -----------------------------------------------
:version 1.10
:name VICON
:units
  mass 1.0
  length 0.45
  angle deg
:documentation
   .ast/.asf automatically generated from VICON data using
   VICON BodyBuilder and BodyLanguage model FoxedUp or BRILLIANT.MOD
:root
   order TX TY TZ RX RY RZ
   axis XYZ
   position 0 0 0  
   orientation 0 0 0 
:bonedata
  begin
     id 1 
     name lhipjoint
     direction 0.645893 -0.654526 0.392961 
     length 2.38111 
     axis 0 0 0  XYZ
  end
  begin
     id 2 
     name lfemur
     direction 0.34202 -0.939693 0  
     length 6.6822  
     axis 0 0 20  XYZ
    dof rx ry rz
    limits (-160.0 20.0)
           (-70.0 70.0)
           (-60.0 70.0)
  end
  begin
     id 3 
     name ltibia
     direction 0.34202 -0.939693 0   
     length 6.93904   
     axis 0 0 20   XYZ
    dof rx
    limits (-10.0 170.0)
  end
  begin
     id 4 
     name lfoot
     direction 0.0694967 -0.190941 0.979138   
     length 2.13616   
     axis -90 7.62852e-016 20   XYZ
    dof rx rz
    limits (-45.0 90.0)
           (-70.0 20.0)
  end
  begin
     id 5 
     name ltoes
     direction 1.535e-011 -4.2202e-011 1   
     length 1.07536   
     axis -90 7.62852e-016 20   XYZ
    dof rx
    limits (-90.0 20.0)
  end
  begin
     id 6 
     name rhipjoint
     direction -0.700219 -0.612087 0.367481   
     length 2.54621  
     axis 0 0 0  XYZ 
  end
  begin
     id 7 
     name rfemur
     direction -0.34202 -0.939693 0   
     length 6.55353   
     axis 0 0 -20   XYZ
    dof rx ry rz
    limits (-160.0 20.0)
           (-70.0 70.0)
           (-70.0 60.0)
  end
  begin
     id 8 
     name rtibia
     direction -0.34202 -0.939693 0   
     length 6.8736   
     axis 0 0 -20   XYZ
    dof rx
    limits (-10.0 170.0)
 end
 begin
     id 9 
     name rfoot
     direction -0.0679995 -0.186827 0.980037   
     length 2.1218  
     axis -90 -7.62852e-016 -20   XYZ
    dof rx rz
    limits (-45.0 90.0)
           (-20.0 70.0)
  end
  begin
     id 10 
     name rtoes
     direction -1.53589e-011 -4.21772e-011 1   
     length 1.06864   
     axis -90 -7.62852e-016 -20   XYZ
    dof rx
    limits (-90.0 20.0)
  end
  begin
     id 11 
     name lowerback
     direction -0.0416607 0.996347 -0.0745409   
     length 2.12205   
     axis 0 0 0   XYZ
    dof rx ry rz
    limits (-20.0 45.0)
           (-30.0 30.0)
           (-30.0 30.0)
  end
  begin
     id 12 
     name upperback
     direction -0.000153993 0.999276 -0.0380568   
     length 2.12759   
     axis 0 0 0   XYZ
    dof rx ry rz
    limits (-20.0 45.0)
           (-30.0 30.0)
           (-30.0 30.0)
  end
  begin
     id 13 
     name thorax
     direction 0.0187671 0.999821 -0.00241421   
     length 2.13704   
     axis 0 0 0   XYZ
    dof rx ry rz
    limits (-20.0 45.0)
           (-30.0 30.0)
           (-30.0 30.0)
  end
  begin
     id 14 
     name lowerneck
     direction 0.0268157 0.964865 0.261374   
     length 1.65253   
     axis 0 0 0   XYZ
    dof rx ry rz
    limits (-20.0 45.0)
           (-30.0 30.0)
           (-30.0 30.0)
  end
  begin
     id 15 
     name upperneck
     direction 0.00263774 0.939908 -0.341418   
     length 1.72375   
     axis 0 0 0   XYZ
    dof rx ry rz
    limits (-20.0 45.0)
           (-30.0 30.0)
           (-30.0 30.0)
  end
  begin
     id 16
     name head
     direction -0.00526001 0.989001 -0.147818  
     length 1.74878  
     axis 0 0 0   XYZ
    dof rx ry rz
    limits (-20.0 45.0)
           (-30.0 30.0)
           (-30.0 30.0)
  end
  begin
     id 17 
     name lclavicle
     direction 0.881214 0.461162 -0.103884  
     length 3.25108  
     axis 0 0 0   XYZ
    dof ry rz
    limits (-20.0 10.0)
           (0.0 20.0)
  end
  begin
     id 18 
     name lhumerus
     direction 1 -4.4899e-011 3.38092e-027   
     length 4.87408   
     axis 180 -30 -90   XYZ
    dof rx ry rz
    limits (-60.0 90.0)
           (-90.0 90.0)
           (-90.0 90.0)
  end
  begin
     id 19
     name lradius
     direction 1 -4.48931e-011 9.96288e-027   
     length 2.76729   
     axis 180 -30 -90   XYZ
    dof rx
    limits (-10.0 170.0)
  end
  begin
     id 20
     name lwrist
     direction 1 -4.4896e-011 1.50617e-026   
     length 1.38364   
     axis -9.31234e-015 90 90   XYZ
    dof ry
    limits (-180.0 0.0)
 end
  begin
     id 21 
     name lhand
     direction 1 -4.49038e-011 3.01286e-026   
     length 0.98922   
     axis -1.92217e-014 90 90   XYZ
    dof rx rz
    limits (-90.0 90.0)
           (-45.0 45.0)
  end
  begin
     id 22 
     name lfingers
     direction 1 -4.49051e-011 6.02588e-026   
     length 0.797535   
     axis -3.84436e-014 90 90   XYZ
    dof rx
    limits (0.0 90.0)
  end
  begin
     id 23
     name lthumb
     direction 0.707107 -6.34901e-011 0.707107   
     length 1.14511   
     axis -90 45 2.19363e-014   XYZ
    dof rx rz
    limits (-45.0 45.0)
           (-45.0 45.0)
  end
  begin
     id 24 
     name rclavicle
     direction -0.893894 0.441652 -0.0767889   
     length 3.29361  
     axis 0 0 0   XYZ 
    dof ry rz
    limits (-10.0 20.0)
           (-20.0 0.0)
  end
  begin
     id 25 
     name rhumerus
     direction -1 -4.48945e-011 8.0491e-028  
     length 4.71404   
     axis 180 30 90   XYZ
    dof rx ry rz
    limits (-90.0 60.0)
           (-90.0 90.0)
           (-90.0 90.0)
  end
  begin
     id 26 
     name rradius
     direction -1 -4.48986e-011 9.27795e-027   
     length 2.83468   
     axis 180 30 90   XYZ
    dof rx
    limits (-10.0 170.0)
  end
  begin
     id 27 
     name rwrist
     direction -1 -4.49029e-011 1.5064e-026   
     length 1.41734   
     axis -9.31234e-015 -90 -90   XYZ
    dof ry
    limits (-180.0 0.0)
  end
  begin
     id 28
     name rhand
     direction -1 -4.48857e-011 3.01165e-026   
     length 0.868195   
     axis -1.92217e-014 -90 -90   XYZ
    dof rx rz
    limits (-90.0 90.0)
           (-45.0 45.0)
  end
  begin
     id 29
     name rfingers
     direction -1 -4.49048e-011 6.02585e-026   
     length 0.699961   
     axis -3.84436e-014 -90 -90   XYZ
    dof rx
    limits (0.0 90.0)
  end
  begin
     id 30
     name rthumb
     direction -0.707107 -6.34854e-011 0.707107   
     length 1.00501   
     axis -90 -45 -2.19363e-014   XYZ
    dof rx rz
    limits (-45.0 45.0)
           (-45.0 45.0)
  end
:hierarchy
  begin
    root lhipjoint rhipjoint lowerback
    lhipjoint lfemur
    lfemur ltibia
    ltibia lfoot
    lfoot ltoes
    rhipjoint rfemur
    rfemur rtibia
    rtibia rfoot
    rfoot rtoes
    lowerback upperback
    upperback thorax
    thorax lowerneck lclavicle rclavicle
    lowerneck upperneck
    upperneck head
    lclavicle lhumerus
    lhumerus lradius
    lradius lwrist
    lwrist lhand lthumb
    lhand lfingers
    rclavicle rhumerus
    rhumerus rradius
    rradius rwrist
    rwrist rhand rthumb
    rhand rfingers
  end

#!OML:ASF H:\ManfredObstacles\Project 1\Capture day 2\Session 1\male.ASF
:FULLY-SPECIFIED
:DEGREES
136
root 1.39483 15.8878 28.4818 -170.111 4.50309 176.297
lowerback -4.38647 0.700999 -4.48178
upperback 0.246751 1.20502 -0.482489
thorax 2.63464 0.5512 2.09541
lowerneck -35.9025 0.786626 1.12091
upperneck 35.233 1.86309 -0.675023
head 19.7316 1.0941 0.0911303
rclavicle -2.01518e-014 -1.19271e-015
rhumerus -33.7964 -18.2429 -77.5531
rradius 24.2011
rwrist 35.7316
rhand -1.11745 -6.65717
rfingers 7.12502
rthumb 24.5196 -35.1074
lclavicle -2.01518e-014 -1.19271e-015
lhumerus -25.7138 16.1107 83.547
lradius 21.3322
lwrist -49.0326
lhand 0.339212 5.74866
lfingers 7.12502
lthumb 25.9152 34.0023
rfemur -5.33242 2.13833 23.1555
rtibia 17.8125
rfoot -11.1562 -19.6699
rtoes -13.3832
lfemur -28.599 -9.23088 -17.6334
ltibia 25.8272
lfoot 5.98908 17.7614
ltoes 8.61083
137
root 1.39081 15.8881 28.4703 -170.081 4.5171 176.334
lowerback -4.18277 0.672519 -4.44741
upperback 0.166086 1.15013 -0.443484
thorax 2.44042 0.529332 2.1086
lowerneck -35.7727 0.917147 1.19717
upperneck 35.0382 2.02346 -0.745629
head 19.5882 1.14835 0.0812234
rclavicle -4.19933e-015 1.03368e-014
rhumerus -33.8798 -17.8978 -77.6194
rradius 24.3115
rwrist 35.6957
rhand -1.04436 -6.60808
rfingers 7.12502
rthumb 24.5897 -35.0488
lclavicle -4.19933e-015 1.03368e-014
lhumerus -25.8296 16.2521 83.4849
lradius 21.1798
lwrist -48.1278
lhand 0.0217901 5.67624
lfingers 7.12502
lthumb 25.6112 33.974
rfemur -5.28437 2.22201 23.1755
rtibia 17.7466
rfoot -11.1329 -19.7336
rtoes -13.427
lfemur -28.6178 -9.21277 -17.617
ltibia 25.8962
lfoot 5.90394 17.7994
ltoes 8.66991
138
root 1.3857 15.8881 28.4565 -170.04 4.51477 176.326
lowerback -4.3099 0.722112 -4.43514
upperback 0.225486 1.22534 -0.476306
thorax 2.56898 0.563528 2.0753
lowerneck -35.795 0.833837 1.24764
upperneck 35.134 1.88636 -0.760296
head 19.6497 1.10574 0.0315606
rclavicle 4.47266e-016 -1.39149e-015
rhumerus -33.7805 -18.1707 -77.5823
rradius 24.2242
rwrist 35.7315
rhand -1.03211 -6.58148
rfingers 7.12502
rthumb 24.6014 -35.0206
lclavicle 4.47266e-016 -1.39149e-015
lhumerus -25.8092 16.253 83.4531
lradius 21.1488
lwrist -48.2439
lhand 0.108951 5.89427
lfingers 7.12502
lthumb 25.6947 34.18
rfemur -5.23827 2.27168 23.1415
rtibia 17.6833
rfoot -11.1615 -19.7638
rtoes -13.5132
lfemur -28.6513 -9.17475 -17.6669
ltibia 25.9617
lfoot 5.84933 17.7894
ltoes 8.65551
139
root 1.38154 15.8889 28.4433 -169.992 4.54307 176.268
lowerback -4.43486 0.801776 -4.43976
upperback 0.247787 1.34409 -0.569374
thorax 2.65638 0.621949 1.99202
lowerneck -36.0174 0.753226 1.42608
upperneck 35.1781 1.70393 -0.911846
head 19.7315 1.03347 -0.121744
rclavicle -1.9133e-015 1.03368e-014
rhumerus -33.8808 -18.3113 -77.6096
rradius 24.3227
rwrist 35.6987
rhand -0.99602 -6.59321
rfingers 7.12502
rthumb 24.636 -35.0276
lclavicle -1.9133e-015 1.03368e-014
lhumerus -25.7877 16.1165 83.3421
lradius 21.0307
lwrist -48.7096
lhand 0.0456561 5.72924
lfingers 7.12502
lthumb 25.6341 34.0237
rfemur -5.20336 2.27645 23.0503
rtibia 17.6
rfoot -11.1465 -19.7573
rtoes -13.5712
lfemur -28.6939 -9.03444 -17.7875
ltibia 26.0387
lfoot 5.68522 17.7209
ltoes 8.69325
140
root 1.37664 15.889 28.4296 -169.956 4.56892 176.241
lowerback -4.63293 0.760444 -4.57956
upperback 0.495183 1.30678 -0.441198
thorax 3.02018 0.586248 2.20666
lowerneck -36.0242 0.770043 1.186
upperneck 35.0885 1.83243 -0.836347
head 19.6774 1.05402 -0.0119085
rclavicle -1.56791e-014 -7.95139e-015
rhumerus -33.2615 -18.3159 -77.583
rradius 24.167
rwrist 35.9847
rhand -0.870634 -6.67341
rfingers 7.12502
rthumb 24.7562 -35.0914
lclavicle -1.56791e-014 -7.95139e-015
lhumerus -25.3818 16.7334 83.4747
lradius 20.8973
lwrist -49.073
lhand 0.0169372 5.62202
lfingers 7.12502
lthumb 25.6066 33.9204
rfemur -5.17296 2.28315 22.988
rtibia 17.5473
rfoot -11.1669 -19.7277
rtoes -13.651
lfemur -28.7059 -8.91569 -17.8801
ltibia 26.0921
lfoot 5.58554 17.6645
ltoes 8.67647
141
root 1.37208 15.8906 28.4127 -169.917 4.63871 176.175
lowerback -4.41139 0.780933 -4.65165
upperback 0.347754 1.32442 -0.47937
thorax 2.74123 0.603984 2.20282
lowerneck -35.7797 0.902118 1.39921
upperneck 34.8695 1.93091 -0.941486
head 19.4946 1.10175 -0.0776483
rclavicle -6.53505e-015 1.90833e-014
rhumerus -33.4911 -18.0805 -77.6484
rradius 24.2809
rwrist 35.8291
rhand -0.874926 -6.70761
rfingers 7.12502
rthumb 24.7521 -35.1261
lclavicle -6.53505e-015 1.90833e-014
lhumerus -25.6605 16.4639 83.4334
lradius 20.9872
lwrist -48.5089
lhand 0.132923 5.86808
lfingers 7.12502
lthumb 25.7177 34.1505
rfemur -5.12918 2.29111 22.8773
rtibia 17.5038
rfoot -11.1716 -19.7048
rtoes -13.8055
lfemur -28.692 -8.85342 -17.9967
ltibia 26.1372
lfoot 5.47009 17.7209
ltoes 8.70656
142
root 1.36713 15.8915 28.397 -169.851 4.64522 176.125
lowerback -4.15567 0.76828 -4.66297
upperback 0.139553 1.29215 -0.539514
thorax 2.38594 0.601203 2.13793
lowerneck -35.6856 0.866199 1.36957
upperneck 35.1461 1.89755 -0.812643
head 19.6332 1.12335 -0.0112653
rclavicle -1.29955e-014 -1.2921e-014
rhumerus -33.7775 -17.9563 -77.689
rradius 24.3189
rwrist 35.9762
rhand -0.809145 -6.77871
rfingers 7.12502
rthumb 24.8151 -35.1885
lclavicle -1.29955e-014 -1.2921e-014
lhumerus -26.0515 16.6311 83.101
lradius 20.9165
lwrist -48.8738
lhand 0.0726818 5.69366
lfingers 7.12502
lthumb 25.66 33.9844
rfemur -5.11446 2.32357 22.7947
rtibia 17.4448
rfoot -11.1486 -19.7368
rtoes -13.9078
lfemur -28.7301 -8.9056 -18.0641
ltibia 26.1856
lfoot 5.40643 17.7992
ltoes 8.78879
143
root 1.36227 15.8921 28.3786 -169.816 4.61728 176.059
lowerback -4.29307 0.739008 -4.72971
upperback 0.249528 1.26754 -0.543017
thorax 2.57724 0.58169 2.17402
lowerneck -35.7141 0.881225 1.30787
upperneck 34.9154 1.90118 -0.788618
head 19.5016 1.10672 0.00633409
rclavicle -2.51711e-014 2.10712e-014
rhumerus -33.575 -17.8228 -77.818
rradius 24.3616
rwrist 35.8262
rhand -0.923466 -6.87662
rfingers 7.12502
rthumb 24.7056 -35.3015
lclavicle -2.51711e-014 2.10712e-014
lhumerus -26.0018 16.9693 82.9743
lradius 20.8837
lwrist -49.3916
lhand 0.065508 5.59135
lfingers 7.12502
lthumb 25.6531 33.8831
rfemur -5.05005 2.3955 22.7029
rtibia 17.3975
rfoot -11.2279 -19.8125
rtoes -13.8671
lfemur -28.7277 -8.85625 -18.1876
ltibia 26.2185
lfoot 5.27482 17.7569
ltoes 8.88785
144
root 1.35584 15.893 28.3613 -169.74 4.61293 176.035
lowerback -4.40426 -0.966067 -4.87671
upperback 0.573671 -1.05113 0.991861
thorax 3.17346 -0.618429 3.69035
lowerneck -38.6921 2.18068 -1.23471
upperneck 35.659 5.52767 -0.777805
head 20.626 2.00752 1.45302
rclavicle 5.56597e-015 -1.98785e-015
rhumerus -30.8847 -11.2844 -78.3935
rradius 23.8804
rwrist 35.2877
rhand -0.574257 -7.45419
rfingers 7.12502
rthumb 25.0402 -35.8328
lclavicle 5.56597e-015 -1.98785e-015
lhumerus -26.7172 24.0881 82.8482
lradius 21.1405
lwrist -50.4969
lhand -0.0952942 5.5729
lfingers 7.12502
lthumb 25.4991 33.8867
rfemur -5.01557 2.49707 22.6464
rtibia 17.3028
rfoot -11.1563 -19.9192
rtoes -13.9954
lfemur -28.7895 -8.82651 -18.2559
ltibia 26.2889
lfoot 5.18192 17.7556
ltoes 8.92597
145
root 1.34985 15.8936 28.343 -169.71 4.58656 175.931
lowerback -4.13868 0.717438 -4.80807
upperback 0.112099 1.23485 -0.613062
thorax 2.35102 0.573998 2.13947
lowerneck -35.5616 0.873023 1.23257
upperneck 34.8404 1.88284 -0.671189
head 19.4174 1.10945 0.0705835
rclavicle 5.76476e-015 1.53064e-014
rhumerus -33.652 -17.5766 -78.0173
rradius 24.4572
rwrist 35.8047
rhand -0.711364 -7.35273
rfingers 7.12502
rthumb 24.9088 -35.7496
lclavicle 5.76476e-015 1.53064e-014
lhumerus -26.2996 16.9717 82.7593
lradius 20.8074
lwrist -49.3489
lhand 0.10358 5.71807
lfingers 7.12502
lthumb 25.6896 34.0045
rfemur -4.92023 2.53509 22.5033
rtibia 17.2013
rfoot -11.1767 -19.9679
rtoes -14.0153
lfemur -28.804 -8.91036 -18.3969
ltibia 26.3693
lfoot 5.11188 17.834
ltoes 9.02865
